[
    {
        "streams": [
            {
                "index": 0,
                "codec_name": "mp3",
                "codec_long_name": "MP3 (MPEG audio layer 3)",
                "codec_type": "audio",
                "codec_tag_string": "[0][0][0][0]",
                "codec_tag": "0x0000",
                "sample_fmt": "fltp",
                "sample_rate": "44100",
                "channels": 2,
                "channel_layout": "stereo",
                "bits_per_sample": 0,
                "initial_padding": 0,
                "r_frame_rate": "0/0",
                "avg_frame_rate": "0/0",
                "time_base": "1/14112000",
                "start_pts": 0,
                "start_time": "0.000000",
                "duration_ts": 2181980388,
                "duration": "154.618792",
                "bit_rate": "192000",
                "disposition": {
                    "default": 0,
                    "dub": 0,
                    "original": 0,
                    "comment": 0,
                    "lyrics": 0,
                    "karaoke": 0,
                    "forced": 0,
                    "hearing_impaired": 0,
                    "visual_impaired": 0,
                    "clean_effects": 0,
                    "attached_pic": 0,
                    "timed_thumbnails": 0,
                    "non_diegetic": 0,
                    "captions": 0,
                    "descriptions": 0,
                    "metadata": 0,
                    "dependent": 0,
                    "still_image": 0,
                    "multilayer": 0
                }
            }
        ],
        "format": {
            "filename": "..\\audio\\track0.mp3",
            "nb_streams": 1,
            "nb_programs": 0,
            "nb_stream_groups": 0,
            "format_name": "mp3",
            "format_long_name": "MP2/3 (MPEG audio layer 2/3)",
            "start_time": "0.000000",
            "duration": "154.618792",
            "size": "3714947",
            "bit_rate": "192211",
            "probe_score": 51,
            "tags": {
                "encoder": "GarageBand 10.4.3",
                "title": "How to Write an 80s Sitcom",
                "album_artist": "Dr Sparkles",
                "artist": "Dr Sparkles",
                "album": "Skip Winkley",
                "genre": "Folk",
                "track": "1",
                "date": "2016"
            }
        }
    },
    {
        "streams": [
            {
                "index": 0,
                "codec_name": "mp3",
                "codec_long_name": "MP3 (MPEG audio layer 3)",
                "codec_type": "audio",
                "codec_tag_string": "[0][0][0][0]",
                "codec_tag": "0x0000",
                "sample_fmt": "fltp",
                "sample_rate": "48000",
                "channels": 2,
                "channel_layout": "stereo",
                "bits_per_sample": 0,
                "initial_padding": 0,
                "r_frame_rate": "0/0",
                "avg_frame_rate": "0/0",
                "time_base": "1/14112000",
                "start_pts": 324870,
                "start_time": "0.023021",
                "duration_ts": 1843986816,
                "duration": "130.668000",
                "bit_rate": "320000",
                "disposition": {
                    "default": 0,
                    "dub": 0,
                    "original": 0,
                    "comment": 0,
                    "lyrics": 0,
                    "karaoke": 0,
                    "forced": 0,
                    "hearing_impaired": 0,
                    "visual_impaired": 0,
                    "clean_effects": 0,
                    "attached_pic": 0,
                    "timed_thumbnails": 0,
                    "non_diegetic": 0,
                    "captions": 0,
                    "descriptions": 0,
                    "metadata": 0,
                    "dependent": 0,
                    "still_image": 0,
                    "multilayer": 0
                }
            }
        ],
        "format": {
            "filename": "..\\audio\\track1.mp3",
            "nb_streams": 1,
            "nb_programs": 0,
            "nb_stream_groups": 0,
            "format_name": "mp3",
            "format_long_name": "MP2/3 (MPEG audio layer 2/3)",
            "start_time": "0.023021",
            "duration": "130.668000",
            "size": "5228365",
            "bit_rate": "320100",
            "probe_score": 51,
            "tags": {
                "date": "2023-01-27",
                "creation_time": "21-00-48",
                "encoder": "Lavf54.63.104"
            }
        }
    },
    {
        "streams": [
            {
                "index": 0,
                "codec_name": "mp3",
                "codec_long_name": "MP3 (MPEG audio layer 3)",
                "codec_type": "audio",
                "codec_tag_string": "[0][0][0][0]",
                "codec_tag": "0x0000",
                "sample_fmt": "fltp",
                "sample_rate": "44100",
                "channels": 2,
                "channel_layout": "stereo",
                "bits_per_sample": 0,
                "initial_padding": 0,
                "r_frame_rate": "0/0",
                "avg_frame_rate": "0/0",
                "time_base": "1/14112000",
                "start_pts": 0,
                "start_time": "0.000000",
                "duration_ts": 1920245594,
                "duration": "136.071825",
                "bit_rate": "320000",
                "disposition": {
                    "default": 0,
                    "dub": 0,
                    "original": 0,
                    "comment": 0,
                    "lyrics": 0,
                    "karaoke": 0,
                    "forced": 0,
                    "hearing_impaired": 0,
                    "visual_impaired": 0,
                    "clean_effects": 0,
                    "attached_pic": 0,
                    "timed_thumbnails": 0,
                    "non_diegetic": 0,
                    "captions": 0,
                    "descriptions": 0,
                    "metadata": 0,
                    "dependent": 0,
                    "still_image": 0,
                    "multilayer": 0
                }
            }
        ],
        "format": {
            "filename": "..\\audio\\track2.mp3",
            "nb_streams": 1,
            "nb_programs": 0,
            "nb_stream_groups": 0,
            "format_name": "mp3",
            "format_long_name": "MP2/3 (MPEG audio layer 2/3)",
            "start_time": "0.000000",
            "duration": "136.071825",
            "size": "5442980",
            "bit_rate": "320006",
            "probe_score": 51,
            "tags": {
                "artist": "Zane Little",
                "encoded_by": "LAME in FL Studio 21",
                "date": "2023"
            }
        }
    },
    {
        "streams": [
            {
                "index": 0,
                "codec_name": "mp3",
                "codec_long_name": "MP3 (MPEG audio layer 3)",
                "codec_type": "audio",
                "codec_tag_string": "[0][0][0][0]",
                "codec_tag": "0x0000",
                "sample_fmt": "fltp",
                "sample_rate": "48000",
                "channels": 2,
                "channel_layout": "stereo",
                "bits_per_sample": 0,
                "initial_padding": 0,
                "r_frame_rate": "0/0",
                "avg_frame_rate": "0/0",
                "time_base": "1/14112000",
                "start_pts": 0,
                "start_time": "0.000000",
                "duration_ts": 2047707648,
                "duration": "145.104000",
                "bit_rate": "192000",
                "disposition": {
                    "default": 0,
                    "dub": 0,
                    "original": 0,
                    "comment": 0,
                    "lyrics": 0,
                    "karaoke": 0,
                    "forced": 0,
                    "hearing_impaired": 0,
                    "visual_impaired": 0,
                    "clean_effects": 0,
                    "attached_pic": 0,
                    "timed_thumbnails": 0,
                    "non_diegetic": 0,
                    "captions": 0,
                    "descriptions": 0,
                    "metadata": 0,
                    "dependent": 0,
                    "still_image": 0,
                    "multilayer": 0
                }
            }
        ],
        "format": {
            "filename": "..\\audio\\track3.mp3",
            "nb_streams": 1,
            "nb_programs": 0,
            "nb_stream_groups": 0,
            "format_name": "mp3",
            "format_long_name": "MP2/3 (MPEG audio layer 2/3)",
            "start_time": "0.000000",
            "duration": "145.104000",
            "size": "3486627",
            "bit_rate": "192227",
            "probe_score": 51,
            "tags": {
                "title": "Lonely Cowboys",
                "album_artist": "Simon Mathewson",
                "genre": "Pop",
                "track": "3",
                "artist": "Simon Mathewson"
            }
        }
    },
    {
        "streams": [
            {
                "index": 0,
                "codec_name": "mp3",
                "codec_long_name": "MP3 (MPEG audio layer 3)",
                "codec_type": "audio",
                "codec_tag_string": "[0][0][0][0]",
                "codec_tag": "0x0000",
                "sample_fmt": "fltp",
                "sample_rate": "44100",
                "channels": 2,
                "channel_layout": "stereo",
                "bits_per_sample": 0,
                "initial_padding": 0,
                "r_frame_rate": "0/0",
                "avg_frame_rate": "0/0",
                "time_base": "1/14112000",
                "start_pts": 0,
                "start_time": "0.000000",
                "duration_ts": 67454965746,
                "duration": "4779.972062",
                "bit_rate": "128000",
                "disposition": {
                    "default": 0,
                    "dub": 0,
                    "original": 0,
                    "comment": 0,
                    "lyrics": 0,
                    "karaoke": 0,
                    "forced": 0,
                    "hearing_impaired": 0,
                    "visual_impaired": 0,
                    "clean_effects": 0,
                    "attached_pic": 0,
                    "timed_thumbnails": 0,
                    "non_diegetic": 0,
                    "captions": 0,
                    "descriptions": 0,
                    "metadata": 0,
                    "dependent": 0,
                    "still_image": 0,
                    "multilayer": 0
                }
            },
            {
                "index": 1,
                "codec_name": "mjpeg",
                "codec_long_name": "Motion JPEG",
                "profile": "Baseline",
                "codec_type": "video",
                "codec_tag_string": "[0][0][0][0]",
                "codec_tag": "0x0000",
                "width": 450,
                "height": 450,
                "coded_width": 450,
                "coded_height": 450,
                "has_b_frames": 0,
                "sample_aspect_ratio": "1:1",
                "display_aspect_ratio": "1:1",
                "pix_fmt": "yuvj420p",
                "level": -99,
                "color_range": "pc",
                "color_space": "bt470bg",
                "chroma_location": "center",
                "refs": 1,
                "r_frame_rate": "90000/1",
                "avg_frame_rate": "0/0",
                "time_base": "1/90000",
                "duration_ts": 430197486,
                "duration": "4779.972067",
                "bits_per_raw_sample": "8",
                "disposition": {
                    "default": 0,
                    "dub": 0,
                    "original": 0,
                    "comment": 0,
                    "lyrics": 0,
                    "karaoke": 0,
                    "forced": 0,
                    "hearing_impaired": 0,
                    "visual_impaired": 0,
                    "clean_effects": 0,
                    "attached_pic": 1,
                    "timed_thumbnails": 0,
                    "non_diegetic": 0,
                    "captions": 0,
                    "descriptions": 0,
                    "metadata": 0,
                    "dependent": 0,
                    "still_image": 0,
                    "multilayer": 0
                },
                "tags": {
                    "comment": "Cover (front)"
                }
            }
        ],
        "format": {
            "filename": "..\\audio\\track4.mp3",
            "nb_streams": 2,
            "nb_programs": 0,
            "nb_stream_groups": 0,
            "format_name": "mp3",
            "format_long_name": "MP2/3 (MPEG audio layer 2/3)",
            "start_time": "0.000000",
            "duration": "4779.972067",
            "size": "76549422",
            "bit_rate": "128116",
            "probe_score": 51
        }
    },
    {
        "streams": [
            {
                "index": 0,
                "codec_name": "mp3",
                "codec_long_name": "MP3 (MPEG audio layer 3)",
                "codec_type": "audio",
                "codec_tag_string": "[0][0][0][0]",
                "codec_tag": "0x0000",
                "sample_fmt": "fltp",
                "sample_rate": "44100",
                "channels": 2,
                "channel_layout": "stereo",
                "bits_per_sample": 0,
                "initial_padding": 0,
                "r_frame_rate": "0/0",
                "avg_frame_rate": "0/0",
                "time_base": "1/14112000",
                "start_pts": 0,
                "start_time": "0.000000",
                "duration_ts": 1752526944,
                "duration": "124.187000",
                "bit_rate": "320000",
                "disposition": {
                    "default": 0,
                    "dub": 0,
                    "original": 0,
                    "comment": 0,
                    "lyrics": 0,
                    "karaoke": 0,
                    "forced": 0,
                    "hearing_impaired": 0,
                    "visual_impaired": 0,
                    "clean_effects": 0,
                    "attached_pic": 0,
                    "timed_thumbnails": 0,
                    "non_diegetic": 0,
                    "captions": 0,
                    "descriptions": 0,
                    "metadata": 0,
                    "dependent": 0,
                    "still_image": 0,
                    "multilayer": 0
                }
            }
        ],
        "format": {
            "filename": "..\\audio\\track5.mp3",
            "nb_streams": 1,
            "nb_programs": 0,
            "nb_stream_groups": 0,
            "format_name": "mp3",
            "format_long_name": "MP2/3 (MPEG audio layer 2/3)",
            "start_time": "0.000000",
            "duration": "124.187000",
            "size": "4973798",
            "bit_rate": "320406",
            "probe_score": 51,
            "tags": {
                "genre": "Blues",
                "id3v2_priv.XMP": "<?xpacket begin=\"\\xef\\xbb\\xbf\" id=\"W5M0MpCehiHzreSzNTczkc9d\"?>\\x0a<x:xmpmeta xmlns:x=\"adobe:ns:meta/\" x:xmptk=\"Adobe XMP Core 6.0-c002 79.164360, 2020/02/13-01:07:22        \">\\x0a <rdf:RDF xmlns:rdf=\"http://www.w3.org/1999/02/22-rdf-syntax-ns#\">\\x0a  <rdf:Description rdf:about=\"\"\\x0a    xmlns:xmpDM=\"http://ns.adobe.com/xmp/1.0/DynamicMedia/\"\\x0a    xmlns:xmp=\"http://ns.adobe.com/xap/1.0/\"\\x0a    xmlns:xmpMM=\"http://ns.adobe.com/xap/1.0/mm/\"\\x0a    xmlns:stEvt=\"http://ns.adobe.com/xap/1.0/sType/ResourceEvent#\"\\x0a    xmlns:stRef=\"http://ns.adobe.com/xap/1.0/sType/ResourceRef#\"\\x0a    xmlns:dc=\"http://purl.org/dc/elements/1.1/\"\\x0a   xmp:MetadataDate=\"2022-06-13T10:56:35+03:00\"\\x0a   xmp:ModifyDate=\"2022-06-13T10:56:35+03:00\"\\x0a   xmpMM:InstanceID=\"xmp.iid:4a69f480-0838-8f44-b530-2467ac8985a1\"\\x0a   xmpMM:DocumentID=\"xmp.did:4a69f480-0838-8f44-b530-2467ac8985a1\"\\x0a   xmpMM:OriginalDocumentID=\"xmp.did:43698fe3-5e51-a947-a494-99a896384d60\"\\x0a   dc:format=\"audio/mpeg\">\\x0a   <xmpDM:Tracks>\\x0a    <rdf:Bag>\\x0a     <rdf:li\\x0a      xmpDM:trackName=\"CuePoint Markers\"\\x0a      xmpDM:trackType=\"Cue\"\\x0a      xmpDM:frameRate=\"f44100\"/>\\x0a     <rdf:li\\x0a      xmpDM:trackName=\"CD Track Markers\"\\x0a      xmpDM:trackType=\"Track\"\\x0a      xmpDM:frameRate=\"f44100\"/>\\x0a     <rdf:li\\x0a      xmpDM:trackName=\"Subclip Markers\"\\x0a      xmpDM:trackType=\"InOut\"\\x0a      xmpDM:frameRate=\"f44100\"/>\\x0a    </rdf:Bag>\\x0a   </xmpDM:Tracks>\\x0a   <xmpMM:History>\\x0a    <rdf:Seq>\\x0a     <rdf:li\\x0a      stEvt:action=\"saved\"\\x0a      stEvt:instanceID=\"xmp.iid:43698fe3-5e51-a947-a494-99a896384d60\"\\x0a      stEvt:when=\"2022-06-13T10:56:35+03:00\"\\x0a      stEvt:softwareAgent=\"Adobe Audition 13.0 (Windows)\"\\x0a      stEvt:changed=\"/metadata\"/>\\x0a     <rdf:li\\x0a      stEvt:action=\"saved\"\\x0a      stEvt:instanceID=\"xmp.iid:4a69f480-0838-8f44-b530-2467ac8985a1\"\\x0a      stEvt:when=\"2022-06-13T10:56:35+03:00\"\\x0a      stEvt:softwareAgent=\"Adobe Audition 13.0 (Windows)\"\\x0a      stEvt:changed=\"/\"/>\\x0a    </rdf:Seq>\\x0a   </xmpMM:History>\\x0a   <xmpMM:DerivedFrom\\x0a    stRef:instanceID=\"xmp.iid:43698fe3-5e51-a947-a494-99a896384d60\"\\x0a    stRef:documentID=\"xmp.did:43698fe3-5e51-a947-a494-99a896384d60\"\\x0a    stRef:originalDocumentID=\"xmp.did:43698fe3-5e51-a947-a494-99a896384d60\"/>\\x0a  </rdf:Description>\\x0a </rdf:RDF>\\x0a</x:xmpmeta>\\x0a                                                                                                    \\x0a                                                                                                    \\x0a                                                                                                    \\x0a                                                                                                    \\x0a                                                                                                    \\x0a                                                                                                    \\x0a                                                                                                    \\x0a                                                                                                    \\x0a                                                                                                    \\x0a                                                                                                    \\x0a                                                                                                    \\x0a                                                                                                    \\x0a                                                                                                    \\x0a                                                                                                    \\x0a                                                                                                    \\x0a                                                                                                    \\x0a                                                                                                    \\x0a                                                                                                    \\x0a                                                                                                    \\x0a                                                                                                    \\x0a                           \\x0a<?xpacket end=\"w\"?>\\x00"
            }
        }
    },
    {
        "streams": [
            {
                "index": 0,
                "codec_name": "mp3",
                "codec_long_name": "MP3 (MPEG audio layer 3)",
                "codec_type": "audio",
                "codec_tag_string": "[0][0][0][0]",
                "codec_tag": "0x0000",
                "sample_fmt": "fltp",
                "sample_rate": "44100",
                "channels": 2,
                "channel_layout": "stereo",
                "bits_per_sample": 0,
                "initial_padding": 0,
                "r_frame_rate": "0/0",
                "avg_frame_rate": "0/0",
                "time_base": "1/14112000",
                "start_pts": 0,
                "start_time": "0.000000",
                "duration_ts": 2230242134,
                "duration": "158.038700",
                "bit_rate": "320000",
                "disposition": {
                    "default": 0,
                    "dub": 0,
                    "original": 0,
                    "comment": 0,
                    "lyrics": 0,
                    "karaoke": 0,
                    "forced": 0,
                    "hearing_impaired": 0,
                    "visual_impaired": 0,
                    "clean_effects": 0,
                    "attached_pic": 0,
                    "timed_thumbnails": 0,
                    "non_diegetic": 0,
                    "captions": 0,
                    "descriptions": 0,
                    "metadata": 0,
                    "dependent": 0,
                    "still_image": 0,
                    "multilayer": 0
                }
            }
        ],
        "format": {
            "filename": "..\\audio\\track6.mp3",
            "nb_streams": 1,
            "nb_programs": 0,
            "nb_stream_groups": 0,
            "format_name": "mp3",
            "format_long_name": "MP2/3 (MPEG audio layer 2/3)",
            "start_time": "0.000000",
            "duration": "158.038700",
            "size": "6329743",
            "bit_rate": "320414",
            "probe_score": 51,
            "tags": {
                "genre": "Blues",
                "id3v2_priv.XMP": "<?xpacket begin=\"\\xef\\xbb\\xbf\" id=\"W5M0MpCehiHzreSzNTczkc9d\"?>\\x0a<x:xmpmeta xmlns:x=\"adobe:ns:meta/\" x:xmptk=\"Adobe XMP Core 6.0-c002 79.164360, 2020/02/13-01:07:22        \">\\x0a <rdf:RDF xmlns:rdf=\"http://www.w3.org/1999/02/22-rdf-syntax-ns#\">\\x0a  <rdf:Description rdf:about=\"\"\\x0a    xmlns:xmp=\"http://ns.adobe.com/xap/1.0/\"\\x0a    xmlns:xmpMM=\"http://ns.adobe.com/xap/1.0/mm/\"\\x0a    xmlns:stEvt=\"http://ns.adobe.com/xap/1.0/sType/ResourceEvent#\"\\x0a    xmlns:stRef=\"http://ns.adobe.com/xap/1.0/sType/ResourceRef#\"\\x0a    xmlns:dc=\"http://purl.org/dc/elements/1.1/\"\\x0a    xmlns:xmpDM=\"http://ns.adobe.com/xmp/1.0/DynamicMedia/\"\\x0a   xmp:MetadataDate=\"2022-06-13T10:56:55+03:00\"\\x0a   xmp:ModifyDate=\"2022-06-13T10:56:55+03:00\"\\x0a   xmpMM:InstanceID=\"xmp.iid:77290d74-12f0-9749-b49f-8b7b3a9fe28c\"\\x0a   xmpMM:DocumentID=\"xmp.did:77290d74-12f0-9749-b49f-8b7b3a9fe28c\"\\x0a   xmpMM:OriginalDocumentID=\"xmp.did:07fc6136-d7c7-9741-bb11-4a5d077c8f7f\"\\x0a   dc:format=\"audio/mpeg\">\\x0a   <xmpMM:History>\\x0a    <rdf:Seq>\\x0a     <rdf:li\\x0a      stEvt:action=\"saved\"\\x0a      stEvt:instanceID=\"xmp.iid:07fc6136-d7c7-9741-bb11-4a5d077c8f7f\"\\x0a      stEvt:when=\"2021-02-25T17:35:32+02:00\"\\x0a      stEvt:softwareAgent=\"Adobe Audition 13.0 (Windows)\"\\x0a      stEvt:changed=\"/metadata\"/>\\x0a     <rdf:li\\x0a      stEvt:action=\"saved\"\\x0a      stEvt:instanceID=\"xmp.iid:b10c3426-063c-754c-89df-48fb32ddbf3e\"\\x0a      stEvt:when=\"2021-02-25T17:35:32+02:00\"\\x0a      stEvt:softwareAgent=\"Adobe Audition 13.0 (Windows)\"\\x0a      stEvt:changed=\"/\"/>\\x0a     <rdf:li\\x0a      stEvt:action=\"saved\"\\x0a      stEvt:instanceID=\"xmp.iid:5ce5d867-2954-374c-a333-329ef810313f\"\\x0a      stEvt:when=\"2021-07-17T20:59:18+03:00\"\\x0a      stEvt:softwareAgent=\"Adobe Audition 13.0 (Windows)\"\\x0a      stEvt:changed=\"/metadata\"/>\\x0a     <rdf:li\\x0a      stEvt:action=\"saved\"\\x0a      stEvt:instanceID=\"xmp.iid:c0138683-2f16-9540-b95e-a6728e9b6bc5\"\\x0a      stEvt:when=\"2021-07-17T20:59:18+03:00\"\\x0a      stEvt:softwareAgent=\"Adobe Audition 13.0 (Windows)\"\\x0a      stEvt:changed=\"/\"/>\\x0a     <rdf:li\\x0a      stEvt:action=\"saved\"\\x0a      stEvt:instanceID=\"xmp.iid:f081effa-2c22-ab44-871d-127816232fb6\"\\x0a      stEvt:when=\"2021-07-17T21:01:53+03:00\"\\x0a      stEvt:softwareAgent=\"Adobe Audition 13.0 (Windows)\"\\x0a      stEvt:changed=\"/metadata\"/>\\x0a     <rdf:li\\x0a      stEvt:action=\"saved\"\\x0a      stEvt:instanceID=\"xmp.iid:0a539ff6-7e23-7e4b-9c68-fced34bf0c5e\"\\x0a      stEvt:when=\"2021-07-17T21:01:53+03:00\"\\x0a      stEvt:softwareAgent=\"Adobe Audition 13.0 (Windows)\"\\x0a      stEvt:changed=\"/\"/>\\x0a     <rdf:li\\x0a      stEvt:action=\"saved\"\\x0a      stEvt:instanceID=\"xmp.iid:51278267-270e-6943-ab25-4f7e3d08bae8\"\\x0a      stEvt:when=\"2022-06-13T10:56:55+03:00\"\\x0a      stEvt:softwareAgent=\"Adobe Audition 13.0 (Windows)\"\\x0a      stEvt:changed=\"/metadata\"/>\\x0a     <rdf:li\\x0a      stEvt:action=\"converted\"\\x0a      stEvt:parameters=\"from audio/x-wav to audio/mpeg\"/>\\x0a     <rdf:li\\x0a      stEvt:action=\"saved\"\\x0a      stEvt:instanceID=\"xmp.iid:1596b16d-fe5d-684f-b80a-c0abe35e4df6\"\\x0a      stEvt:when=\"2022-06-13T10:56:55+03:00\"\\x0a      stEvt:softwareAgent=\"Adobe Audition 13.0 (Windows)\"/>\\x0a     <rdf:li\\x0a      stEvt:action=\"converted\"\\x0a      stEvt:parameters=\"from audio/x-wav to audio/mpeg\"/>\\x0a     <rdf:li\\x0a      stEvt:action=\"saved\"\\x0a      stEvt:instanceID=\"xmp.iid:77290d74-12f0-9749-b49f-8b7b3a9fe28c\"\\x0a      stEvt:when=\"2022-06-13T10:56:55+03:00\"\\x0a      stEvt:softwareAgent=\"Adobe Audition 13.0 (Windows)\"\\x0a      stEvt:changed=\"/\"/>\\x0a    </rdf:Seq>\\x0a   </xmpMM:History>\\x0a   <xmpMM:DerivedFrom\\x0a    stRef:instanceID=\"xmp.iid:1596b16d-fe5d-684f-b80a-c0abe35e4df6\"\\x0a    stRef:documentID=\"xmp.did:1596b16d-fe5d-684f-b80a-c0abe35e4df6\"\\x0a    stRef:originalDocumentID=\"xmp.did:07fc6136-d7c7-9741-bb11-4a5d077c8f7f\"/>\\x0a   <xmpDM:Tracks>\\x0a    <rdf:Bag>\\x0a     <rdf:li\\x0a      xmpDM:trackName=\"CuePoint Markers\"\\x0a      xmpDM:trackType=\"Cue\"\\x0a      xmpDM:frameRate=\"f44100\"/>\\x0a     <rdf:li\\x0a      xmpDM:trackName=\"CD Track Markers\"\\x0a      xmpDM:trackType=\"Track\"\\x0a      xmpDM:frameRate=\"f44100\"/>\\x0a     <rdf:li\\x0a      xmpDM:trackName=\"Subclip Markers\"\\x0a      xmpDM:trackType=\"InOut\"\\x0a      xmpDM:frameRate=\"f44100\"/>\\x0a    </rdf:Bag>\\x0a   </xmpDM:Tracks>\\x0a  </rdf:Description>\\x0a </rdf:RDF>\\x0a</x:xmpmeta>\\x0a                                                                                                    \\x0a                                                                                                    \\x0a                                                                                                    \\x0a                                                                                                    \\x0a                                                                                                    \\x0a                                                                                                    \\x0a                                                                                                    \\x0a                                                                                                    \\x0a                                                                                                    \\x0a                                                                                                    \\x0a                                                                                                    \\x0a                                                                                                    \\x0a                                                                                                    \\x0a                                                                                                    \\x0a                                                                                                    \\x0a                                                                                                    \\x0a                                                                                                    \\x0a                                                                                                    \\x0a                                                                                                    \\x0a                                                                                                    \\x0a                           \\x0a<?xpacket end=\"w\"?>\\x00"
            }
        }
    },
    {
        "streams": [
            {
                "index": 0,
                "codec_name": "mp3",
                "codec_long_name": "MP3 (MPEG audio layer 3)",
                "codec_type": "audio",
                "codec_tag_string": "[0][0][0][0]",
                "codec_tag": "0x0000",
                "sample_fmt": "fltp",
                "sample_rate": "44100",
                "channels": 2,
                "channel_layout": "stereo",
                "bits_per_sample": 0,
                "initial_padding": 0,
                "r_frame_rate": "0/0",
                "avg_frame_rate": "0/0",
                "time_base": "1/14112000",
                "start_pts": 0,
                "start_time": "0.000000",
                "duration_ts": 1924165555,
                "duration": "136.349600",
                "bit_rate": "320000",
                "disposition": {
                    "default": 0,
                    "dub": 0,
                    "original": 0,
                    "comment": 0,
                    "lyrics": 0,
                    "karaoke": 0,
                    "forced": 0,
                    "hearing_impaired": 0,
                    "visual_impaired": 0,
                    "clean_effects": 0,
                    "attached_pic": 0,
                    "timed_thumbnails": 0,
                    "non_diegetic": 0,
                    "captions": 0,
                    "descriptions": 0,
                    "metadata": 0,
                    "dependent": 0,
                    "still_image": 0,
                    "multilayer": 0
                }
            }
        ],
        "format": {
            "filename": "..\\audio\\track7.mp3",
            "nb_streams": 1,
            "nb_programs": 0,
            "nb_stream_groups": 0,
            "format_name": "mp3",
            "format_long_name": "MP2/3 (MPEG audio layer 2/3)",
            "start_time": "0.000000",
            "duration": "136.349600",
            "size": "5461207",
            "bit_rate": "320423",
            "probe_score": 51,
            "tags": {
                "genre": "Blues",
                "id3v2_priv.XMP": "<?xpacket begin=\"\\xef\\xbb\\xbf\" id=\"W5M0MpCehiHzreSzNTczkc9d\"?>\\x0a<x:xmpmeta xmlns:x=\"adobe:ns:meta/\" x:xmptk=\"Adobe XMP Core 6.0-c002 79.164360, 2020/02/13-01:07:22        \">\\x0a <rdf:RDF xmlns:rdf=\"http://www.w3.org/1999/02/22-rdf-syntax-ns#\">\\x0a  <rdf:Description rdf:about=\"\"\\x0a    xmlns:xmp=\"http://ns.adobe.com/xap/1.0/\"\\x0a    xmlns:xmpMM=\"http://ns.adobe.com/xap/1.0/mm/\"\\x0a    xmlns:stEvt=\"http://ns.adobe.com/xap/1.0/sType/ResourceEvent#\"\\x0a    xmlns:stRef=\"http://ns.adobe.com/xap/1.0/sType/ResourceRef#\"\\x0a    xmlns:dc=\"http://purl.org/dc/elements/1.1/\"\\x0a    xmlns:xmpDM=\"http://ns.adobe.com/xmp/1.0/DynamicMedia/\"\\x0a   xmp:MetadataDate=\"2022-06-13T10:57:32+03:00\"\\x0a   xmp:ModifyDate=\"2022-06-13T10:57:32+03:00\"\\x0a   xmpMM:InstanceID=\"xmp.iid:5752966c-749d-e045-ad45-19ece2171201\"\\x0a   xmpMM:DocumentID=\"xmp.did:5752966c-749d-e045-ad45-19ece2171201\"\\x0a   xmpMM:OriginalDocumentID=\"xmp.did:baf4a29d-f585-2944-b4af-656cd8a89da1\"\\x0a   dc:format=\"audio/mpeg\">\\x0a   <xmpMM:History>\\x0a    <rdf:Seq>\\x0a     <rdf:li\\x0a      stEvt:action=\"saved\"\\x0a      stEvt:instanceID=\"xmp.iid:baf4a29d-f585-2944-b4af-656cd8a89da1\"\\x0a      stEvt:when=\"2021-05-08T19:30:06+03:00\"\\x0a      stEvt:softwareAgent=\"Adobe Audition 13.0 (Windows)\"\\x0a      stEvt:changed=\"/metadata\"/>\\x0a     <rdf:li\\x0a      stEvt:action=\"saved\"\\x0a      stEvt:instanceID=\"xmp.iid:0398ba57-c21e-ec44-aaac-ec66b4be981e\"\\x0a      stEvt:when=\"2021-05-08T19:30:06+03:00\"\\x0a      stEvt:softwareAgent=\"Adobe Audition 13.0 (Windows)\"\\x0a      stEvt:changed=\"/\"/>\\x0a     <rdf:li\\x0a      stEvt:action=\"saved\"\\x0a      stEvt:instanceID=\"xmp.iid:84ac42e7-2661-6243-a54f-0e26cfd32df0\"\\x0a      stEvt:when=\"2022-06-13T10:57:32+03:00\"\\x0a      stEvt:softwareAgent=\"Adobe Audition 13.0 (Windows)\"\\x0a      stEvt:changed=\"/metadata\"/>\\x0a     <rdf:li\\x0a      stEvt:action=\"converted\"\\x0a      stEvt:parameters=\"from audio/x-wav to audio/mpeg\"/>\\x0a     <rdf:li\\x0a      stEvt:action=\"saved\"\\x0a      stEvt:instanceID=\"xmp.iid:121b07d8-060e-0242-a7e0-40ec92530100\"\\x0a      stEvt:when=\"2022-06-13T10:57:32+03:00\"\\x0a      stEvt:softwareAgent=\"Adobe Audition 13.0 (Windows)\"/>\\x0a     <rdf:li\\x0a      stEvt:action=\"converted\"\\x0a      stEvt:parameters=\"from audio/x-wav to audio/mpeg\"/>\\x0a     <rdf:li\\x0a      stEvt:action=\"saved\"\\x0a      stEvt:instanceID=\"xmp.iid:5752966c-749d-e045-ad45-19ece2171201\"\\x0a      stEvt:when=\"2022-06-13T10:57:32+03:00\"\\x0a      stEvt:softwareAgent=\"Adobe Audition 13.0 (Windows)\"\\x0a      stEvt:changed=\"/\"/>\\x0a    </rdf:Seq>\\x0a   </xmpMM:History>\\x0a   <xmpMM:DerivedFrom\\x0a    stRef:instanceID=\"xmp.iid:121b07d8-060e-0242-a7e0-40ec92530100\"\\x0a    stRef:documentID=\"xmp.did:121b07d8-060e-0242-a7e0-40ec92530100\"\\x0a    stRef:originalDocumentID=\"xmp.did:baf4a29d-f585-2944-b4af-656cd8a89da1\"/>\\x0a   <xmpDM:Tracks>\\x0a    <rdf:Bag>\\x0a     <rdf:li\\x0a      xmpDM:trackName=\"CuePoint Markers\"\\x0a      xmpDM:trackType=\"Cue\"\\x0a      xmpDM:frameRate=\"f44100\"/>\\x0a     <rdf:li\\x0a      xmpDM:trackName=\"CD Track Markers\"\\x0a      xmpDM:trackType=\"Track\"\\x0a      xmpDM:frameRate=\"f44100\"/>\\x0a     <rdf:li\\x0a      xmpDM:trackName=\"Subclip Markers\"\\x0a      xmpDM:trackType=\"InOut\"\\x0a      xmpDM:frameRate=\"f44100\"/>\\x0a    </rdf:Bag>\\x0a   </xmpDM:Tracks>\\x0a  </rdf:Description>\\x0a </rdf:RDF>\\x0a</x:xmpmeta>\\x0a                                                                                                    \\x0a                                                                                                    \\x0a                                                                                                    \\x0a                                                                                                    \\x0a                                                                                                    \\x0a                                                                                                    \\x0a                                                                                                    \\x0a                                                                                                    \\x0a                                                                                                    \\x0a                                                                                                    \\x0a                                                                                                    \\x0a                                                                                                    \\x0a                                                                                                    \\x0a                                                                                                    \\x0a                                                                                                    \\x0a                                                                                                    \\x0a                                                                                                    \\x0a                                                                                                    \\x0a                                                                                                    \\x0a                                                                                                    \\x0a                           \\x0a<?xpacket end=\"w\"?>\\x00"
            }
        }
    },
    {
        "streams": [
            {
                "index": 0,
                "codec_name": "mp3",
                "codec_long_name": "MP3 (MPEG audio layer 3)",
                "codec_type": "audio",
                "codec_tag_string": "[0][0][0][0]",
                "codec_tag": "0x0000",
                "sample_fmt": "fltp",
                "sample_rate": "44100",
                "channels": 2,
                "channel_layout": "stereo",
                "bits_per_sample": 0,
                "initial_padding": 0,
                "r_frame_rate": "0/0",
                "avg_frame_rate": "0/0",
                "time_base": "1/14112000",
                "start_pts": 0,
                "start_time": "0.000000",
                "duration_ts": 5827829994,
                "duration": "412.969812",
                "bit_rate": "256000",
                "disposition": {
                    "default": 0,
                    "dub": 0,
                    "original": 0,
                    "comment": 0,
                    "lyrics": 0,
                    "karaoke": 0,
                    "forced": 0,
                    "hearing_impaired": 0,
                    "visual_impaired": 0,
                    "clean_effects": 0,
                    "attached_pic": 0,
                    "timed_thumbnails": 0,
                    "non_diegetic": 0,
                    "captions": 0,
                    "descriptions": 0,
                    "metadata": 0,
                    "dependent": 0,
                    "still_image": 0,
                    "multilayer": 0
                }
            },
            {
                "index": 1,
                "codec_name": "mjpeg",
                "codec_long_name": "Motion JPEG",
                "profile": "Baseline",
                "codec_type": "video",
                "codec_tag_string": "[0][0][0][0]",
                "codec_tag": "0x0000",
                "width": 350,
                "height": 358,
                "coded_width": 350,
                "coded_height": 358,
                "has_b_frames": 0,
                "sample_aspect_ratio": "1:1",
                "display_aspect_ratio": "175:179",
                "pix_fmt": "yuvj444p",
                "level": -99,
                "color_range": "pc",
                "color_space": "bt470bg",
                "chroma_location": "center",
                "refs": 1,
                "r_frame_rate": "90000/1",
                "avg_frame_rate": "0/0",
                "time_base": "1/90000",
                "duration_ts": 37167283,
                "duration": "412.969811",
                "bits_per_raw_sample": "8",
                "disposition": {
                    "default": 0,
                    "dub": 0,
                    "original": 0,
                    "comment": 0,
                    "lyrics": 0,
                    "karaoke": 0,
                    "forced": 0,
                    "hearing_impaired": 0,
                    "visual_impaired": 0,
                    "clean_effects": 0,
                    "attached_pic": 1,
                    "timed_thumbnails": 0,
                    "non_diegetic": 0,
                    "captions": 0,
                    "descriptions": 0,
                    "metadata": 0,
                    "dependent": 0,
                    "still_image": 0,
                    "multilayer": 0
                },
                "tags": {
                    "comment": "Other"
                }
            }
        ],
        "format": {
            "filename": "..\\audio\\track8.mp3",
            "nb_streams": 2,
            "nb_programs": 0,
            "nb_stream_groups": 0,
            "format_name": "mp3",
            "format_long_name": "MP2/3 (MPEG audio layer 2/3)",
            "start_time": "0.000000",
            "duration": "412.969813",
            "size": "13262015",
            "bit_rate": "256910",
            "probe_score": 51,
            "tags": {
                "title": "What A Day",
                "artist": "Albert Beger",
                "track": "1",
                "album": "Listening",
                "disc": "1/1",
                "date": "2011-02-09T17:10:40",
                "genre": "Jazz",
                "copyright": "Creative Commons Attribution-NonCommercial-NoDerivatives (aka Music Sharing): http://creativecommons.org/licenses/by-nc-nd/3.0/",
                "TDAT": "2011-02-09 17:10:40",
                "compilation": "1",
                "comment": "URL: http://freemusicarchive.org/music/Albert_Beger/Listening/01_What_A_Day\r\nComments: http://freemusicarchive.org/\r\nCurator: \r\nCopyright: Creative Commons Attribution-NonCommercial-NoDerivatives (aka Music Sharing): http://creativecommons.org/licenses/by-nc-nd/3.0/",
                "album_artist": "Albert Beger"
            }
        }
    },
    {
        "streams": [
            {
                "index": 0,
                "codec_name": "mp3",
                "codec_long_name": "MP3 (MPEG audio layer 3)",
                "codec_type": "audio",
                "codec_tag_string": "[0][0][0][0]",
                "codec_tag": "0x0000",
                "sample_fmt": "fltp",
                "sample_rate": "44100",
                "channels": 2,
                "channel_layout": "stereo",
                "bits_per_sample": 0,
                "initial_padding": 0,
                "r_frame_rate": "0/0",
                "avg_frame_rate": "0/0",
                "time_base": "1/14112000",
                "start_pts": 0,
                "start_time": "0.000000",
                "duration_ts": 11124080793,
                "duration": "788.271031",
                "bit_rate": "256000",
                "disposition": {
                    "default": 0,
                    "dub": 0,
                    "original": 0,
                    "comment": 0,
                    "lyrics": 0,
                    "karaoke": 0,
                    "forced": 0,
                    "hearing_impaired": 0,
                    "visual_impaired": 0,
                    "clean_effects": 0,
                    "attached_pic": 0,
                    "timed_thumbnails": 0,
                    "non_diegetic": 0,
                    "captions": 0,
                    "descriptions": 0,
                    "metadata": 0,
                    "dependent": 0,
                    "still_image": 0,
                    "multilayer": 0
                }
            }
        ],
        "format": {
            "filename": "..\\audio\\track9.mp3",
            "nb_streams": 1,
            "nb_programs": 0,
            "nb_stream_groups": 0,
            "format_name": "mp3",
            "format_long_name": "MP2/3 (MPEG audio layer 2/3)",
            "start_time": "0.000000",
            "duration": "788.271031",
            "size": "25225707",
            "bit_rate": "256010",
            "probe_score": 51,
            "tags": {
                "title": "Santa on a Segway",
                "artist": "Scott Fields",
                "track": "0",
                "album": "Minaret Minuets",
                "date": "2011-04-13T16:26:54",
                "copyright": "Attribution-Noncommercial-Share Alike 3.0 United States: http://creativecommons.org/licenses/by-nc-sa/3.0/us/",
                "TDAT": "2011-04-13 16:26:54",
                "comment": "URL: http://freemusicarchive.org/music/Scott_Fields/Minaret_Minuets/Santa_on_a_Segway\r\nComments: http://freemusicarchive.org/\r\nCurator: DRAM\r\nCopyright: Attribution-Noncommercial-Share Alike 3.0 United States: http://creativecommons.org/licenses/by-nc-sa/3.0/us/",
                "album_artist": "Scott Fields"
            }
        }
    },
    {
        "streams": [
            {
                "index": 0,
                "codec_name": "mp3",
                "codec_long_name": "MP3 (MPEG audio layer 3)",
                "codec_type": "audio",
                "codec_tag_string": "[0][0][0][0]",
                "codec_tag": "0x0000",
                "sample_fmt": "fltp",
                "sample_rate": "44100",
                "channels": 2,
                "channel_layout": "stereo",
                "bits_per_sample": 0,
                "initial_padding": 0,
                "r_frame_rate": "0/0",
                "avg_frame_rate": "0/0",
                "time_base": "1/14112000",
                "start_pts": 0,
                "start_time": "0.000000",
                "duration_ts": 8826403761,
                "duration": "625.453781",
                "bit_rate": "256000",
                "disposition": {
                    "default": 0,
                    "dub": 0,
                    "original": 0,
                    "comment": 0,
                    "lyrics": 0,
                    "karaoke": 0,
                    "forced": 0,
                    "hearing_impaired": 0,
                    "visual_impaired": 0,
                    "clean_effects": 0,
                    "attached_pic": 0,
                    "timed_thumbnails": 0,
                    "non_diegetic": 0,
                    "captions": 0,
                    "descriptions": 0,
                    "metadata": 0,
                    "dependent": 0,
                    "still_image": 0,
                    "multilayer": 0
                }
            }
        ],
        "format": {
            "filename": "..\\audio\\track10.mp3",
            "nb_streams": 1,
            "nb_programs": 0,
            "nb_stream_groups": 0,
            "format_name": "mp3",
            "format_long_name": "MP2/3 (MPEG audio layer 2/3)",
            "start_time": "0.000000",
            "duration": "625.453781",
            "size": "20015555",
            "bit_rate": "256013",
            "probe_score": 51,
            "tags": {
                "title": "C-mol blues",
                "artist": "Jazz at Mladost Club",
                "track": "9",
                "album": "Jazz Night",
                "date": "2013-06-17T16:26:03",
                "genre": "Jazz",
                "copyright": "Attribution-NonCommercial-ShareAlike: http://creativecommons.org/licenses/by-nc-sa/3.0/",
                "TDAT": "2013-06-17 16:26:03",
                "comment": "URL: http://freemusicarchive.org/music/Jazz_at_Mladost_Club/Jazz_Night/C-mol_blues\r\nComments: http://freemusicarchive.org/\r\nCurator: Music for Video\r\nCopyright: Attribution-NonCommercial-ShareAlike: http://creativecommons.org/licenses/by-nc-sa/3.0/",
                "album_artist": "Jazz at Mladost"
            }
        }
    },
    {
        "streams": [
            {
                "index": 0,
                "codec_name": "mp3",
                "codec_long_name": "MP3 (MPEG audio layer 3)",
                "codec_type": "audio",
                "codec_tag_string": "[0][0][0][0]",
                "codec_tag": "0x0000",
                "sample_fmt": "fltp",
                "sample_rate": "44100",
                "channels": 2,
                "channel_layout": "stereo",
                "bits_per_sample": 0,
                "initial_padding": 0,
                "r_frame_rate": "0/0",
                "avg_frame_rate": "0/0",
                "time_base": "1/14112000",
                "start_pts": 0,
                "start_time": "0.000000",
                "duration_ts": 6719626368,
                "duration": "476.164000",
                "bit_rate": "256000",
                "disposition": {
                    "default": 0,
                    "dub": 0,
                    "original": 0,
                    "comment": 0,
                    "lyrics": 0,
                    "karaoke": 0,
                    "forced": 0,
                    "hearing_impaired": 0,
                    "visual_impaired": 0,
                    "clean_effects": 0,
                    "attached_pic": 0,
                    "timed_thumbnails": 0,
                    "non_diegetic": 0,
                    "captions": 0,
                    "descriptions": 0,
                    "metadata": 0,
                    "dependent": 0,
                    "still_image": 0,
                    "multilayer": 0
                }
            }
        ],
        "format": {
            "filename": "..\\audio\\track11.mp3",
            "nb_streams": 1,
            "nb_programs": 0,
            "nb_stream_groups": 0,
            "format_name": "mp3",
            "format_long_name": "MP2/3 (MPEG audio layer 2/3)",
            "start_time": "0.000000",
            "duration": "476.164000",
            "size": "15238272",
            "bit_rate": "256017",
            "probe_score": 51,
            "tags": {
                "title": "Konflikt",
                "artist": "Jazz at Mladost Club",
                "track": "13",
                "album": "Jazz Night",
                "date": "2013-06-17T16:26:17",
                "genre": "Jazz",
                "copyright": "Attribution-NonCommercial-ShareAlike: http://creativecommons.org/licenses/by-nc-sa/3.0/",
                "TDAT": "2013-06-17 16:26:17",
                "Engineer": "fly  ",
                "comment": "URL: http://freemusicarchive.org/music/Jazz_at_Mladost_Club/Jazz_Night/Konflikt\r\nComments: http://freemusicarchive.org/\r\nCurator: \r\nCopyright: Attribution-NonCommercial-ShareAlike: http://creativecommons.org/licenses/by-nc-sa/3.0/",
                "album_artist": "Jazz at Mladost"
            }
        }
    },
    {
        "streams": [
            {
                "index": 0,
                "codec_name": "mp3",
                "codec_long_name": "MP3 (MPEG audio layer 3)",
                "codec_type": "audio",
                "codec_tag_string": "[0][0][0][0]",
                "codec_tag": "0x0000",
                "sample_fmt": "fltp",
                "sample_rate": "44100",
                "channels": 2,
                "channel_layout": "stereo",
                "bits_per_sample": 0,
                "initial_padding": 0,
                "r_frame_rate": "0/0",
                "avg_frame_rate": "0/0",
                "time_base": "1/14112000",
                "start_pts": 0,
                "start_time": "0.000000",
                "duration_ts": 4270382046,
                "duration": "302.606437",
                "bit_rate": "256000",
                "disposition": {
                    "default": 0,
                    "dub": 0,
                    "original": 0,
                    "comment": 0,
                    "lyrics": 0,
                    "karaoke": 0,
                    "forced": 0,
                    "hearing_impaired": 0,
                    "visual_impaired": 0,
                    "clean_effects": 0,
                    "attached_pic": 0,
                    "timed_thumbnails": 0,
                    "non_diegetic": 0,
                    "captions": 0,
                    "descriptions": 0,
                    "metadata": 0,
                    "dependent": 0,
                    "still_image": 0,
                    "multilayer": 0
                }
            }
        ],
        "format": {
            "filename": "..\\audio\\track12.mp3",
            "nb_streams": 1,
            "nb_programs": 0,
            "nb_stream_groups": 0,
            "format_name": "mp3",
            "format_long_name": "MP2/3 (MPEG audio layer 2/3)",
            "start_time": "0.000000",
            "duration": "302.606438",
            "size": "9684440",
            "bit_rate": "256027",
            "probe_score": 51,
            "tags": {
                "title": "No More Blues",
                "artist": "Jazz at Mladost Club",
                "track": "1",
                "album": "Jazz Night",
                "date": "2013-06-17T16:25:39",
                "genre": "Jazz",
                "copyright": "Attribution-NonCommercial-ShareAlike: http://creativecommons.org/licenses/by-nc-sa/3.0/",
                "TDAT": "2013-06-17 16:25:39",
                "comment": "URL: http://freemusicarchive.org/music/Jazz_at_Mladost_Club/Jazz_Night/No_More_Blues\r\nComments: http://freemusicarchive.org/\r\nCurator: \r\nCopyright: Attribution-NonCommercial-ShareAlike: http://creativecommons.org/licenses/by-nc-sa/3.0/",
                "album_artist": "Jazz at Mladost"
            }
        }
    },
    {
        "streams": [
            {
                "index": 0,
                "codec_name": "mp3",
                "codec_long_name": "MP3 (MPEG audio layer 3)",
                "codec_type": "audio",
                "codec_tag_string": "[0][0][0][0]",
                "codec_tag": "0x0000",
                "sample_fmt": "fltp",
                "sample_rate": "44100",
                "channels": 2,
                "channel_layout": "stereo",
                "bits_per_sample": 0,
                "initial_padding": 0,
                "r_frame_rate": "0/0",
                "avg_frame_rate": "0/0",
                "time_base": "1/14112000",
                "start_pts": 353600,
                "start_time": "0.025057",
                "duration_ts": 2054003200,
                "duration": "145.550113",
                "bit_rate": "320000",
                "disposition": {
                    "default": 0,
                    "dub": 0,
                    "original": 0,
                    "comment": 0,
                    "lyrics": 0,
                    "karaoke": 0,
                    "forced": 0,
                    "hearing_impaired": 0,
                    "visual_impaired": 0,
                    "clean_effects": 0,
                    "attached_pic": 0,
                    "timed_thumbnails": 0,
                    "non_diegetic": 0,
                    "captions": 0,
                    "descriptions": 0,
                    "metadata": 0,
                    "dependent": 0,
                    "still_image": 0,
                    "multilayer": 0
                },
                "tags": {
                    "encoder": "LAME3.98r"
                },
                "side_data_list": [
                    {
                        "side_data_type": "Replay Gain"
                    }
                ]
            }
        ],
        "format": {
            "filename": "..\\audio\\track13.mp3",
            "nb_streams": 1,
            "nb_programs": 0,
            "nb_stream_groups": 0,
            "format_name": "mp3",
            "format_long_name": "MP2/3 (MPEG audio layer 2/3)",
            "start_time": "0.025057",
            "duration": "145.550113",
            "size": "5827751",
            "bit_rate": "320315",
            "probe_score": 51,
            "tags": {
                "title": "At Least We Have Each Other (Live @ KEXP)",
                "artist": "Southeast Engine",
                "track": "0",
                "album": "KEXP Live, March 2011",
                "date": "2011-04-11T00:00:00",
                "genre": "Country",
                "copyright": "FMA-Limited: http://freemusicarchive.org/FMA_License",
                "TDAT": "2011-04-11 0:00:00",
                "publisher": "null",
                "encoded_by": "null",
                "TEXT": "null",
                "album_artist": "Various Artists (KEXP)",
                "comment": "URL: http://freemusicarchive.org/music/Southeast_Engine/KEXP_Live_March_2011/At_Least_We_Have_Each_Other\r\nComments: http://freemusicarchive.org/\r\nCurator: KEXP\r\nCopyright: FMA-Limited: http://freemusicarchive.org/FMA_License\r\nComposer: null",
                "composer": "null"
            }
        }
    }
]